<?xml version="1.0" encoding="UTF-8"?>
<svg id="Layer_1" data-name="Layer 1" xmlns="http://www.w3.org/2000/svg" viewBox="0 0 155.07 75.78">
  <defs>
    <style>
      .cls-1 {
        fill: #524c48;
      }

      .cls-2 {
        fill: #fee578;
      }
    </style>
  </defs>
  <rect class="cls-2" width="155.07" height="75.78"/>
  <g>
    <path class="cls-1" d="M87.05,49.79c-.97,0-1.95,0-2.92,0h-3.82v-3.05h13.24c3.35,0,6.29-2.4,6.83-5.59.6-3.51-1.26-6.76-4.51-7.9-.69-.24-1.04-.67-1.14-1.4-.44-3.12-3.24-5.94-6.37-6.42-2.28-.35-4.25.11-6.05,1.39-.07.05-.14.09-.24.15l-.73.41-.27-.66c-1.24-3.07-3.35-5.2-6.27-6.35-2.14-.84-4.37-.95-6.63-.34-2.66.72-4.77,2.28-6.28,4.64-1.42,2.22-1.93,4.75-1.52,7.53l.06.45-.4.2c-.27.14-.55.26-.81.39-.55.25-1.06.49-1.52.79-2.38,1.55-3.54,4.38-2.96,7.22.56,2.74,2.83,4.91,5.64,5.38.39.07.74.1,1.06.1,3.21,0,6.41,0,9.62,0h3.74s0,3.05,0,3.05h-4.29c-2.92,0-5.85,0-8.78,0-4.99,0-9.1-3.41-10-8.28-.79-4.31,1.34-8.57,5.32-10.6.13-.07.16-.1.16-.1h0s.01-.03.01-.13c-.01-6.81,4.27-12.2,10.92-13.72,5.37-1.24,11.28,1.22,14.36,5.98l.16.24c1.45-.6,2.89-.91,4.35-.89,4.85,0,9.27,3.42,10.5,8.12.06.23.12.3.28.38,3.3,1.65,5.2,4.31,5.66,7.91h0c.33,2.6-.42,5.19-2.09,7.3-1.66,2.08-4.08,3.43-6.63,3.68-.69.07-1.38.11-2.05.11-1.87,0-3.74,0-5.62,0Z"/>
    <polygon class="cls-1" points="79.11 59.15 76.03 59.15 76.03 39.33 70.49 44.88 68.58 42.6 77.61 33.58 86.71 42.68 84.57 44.76 79.11 39.26 79.11 59.15"/>
  </g>
</svg>